#define 7f73df00601b4f649c347c6561f69400RwnEMA0SwXhnuo4D_width 64
#define 7f73df00601b4f649c347c6561f69400RwnEMA0SwXhnuo4D_height 64
static char 7f73df00601b4f649c347c6561f69400RwnEMA0SwXhnuo4D_bits[] = {
  0x00, 0x00, 0x00, 0xFC, 0x02, 0x00, 0x00, 0x00, 0x00, 0x00, 0x00, 0x03, 
  0x3E, 0x00, 0x00, 0x00, 0x00, 0x00, 0x80, 0x01, 0x60, 0x00, 0x00, 0x00, 
  0x00, 0x00, 0x80, 0x00, 0x80, 0x00, 0x00, 0x00, 0x00, 0x00, 0x80, 0x00, 
  0x80, 0x01, 0x00, 0x00, 0x00, 0x00, 0x80, 0x50, 0xA0, 0x00, 0x00, 0x00, 
  0x00, 0x00, 0x80, 0xE0, 0xB8, 0x07, 0x00, 0x00, 0x00, 0x00, 0x80, 0x20, 
  0x00, 0x30, 0x00, 0x00, 0x00, 0x00, 0x80, 0x00, 0x03, 0x00, 0x00, 0x00, 
  0x00, 0x00, 0x80, 0x01, 0xE8, 0x3F, 0x00, 0x00, 0x00, 0x00, 0x00, 0x00, 
  0xC4, 0x00, 0x00, 0x00, 0x00, 0x00, 0x00, 0x01, 0x30, 0x00, 0x00, 0x00, 
  0x00, 0x00, 0x80, 0x01, 0x20, 0x00, 0x00, 0x00, 0x00, 0x00, 0xC0, 0x03, 
  0x70, 0x00, 0x00, 0x00, 0x00, 0x00, 0xC0, 0x0F, 0xF0, 0x00, 0x00, 0x00, 
  0x00, 0x00, 0xC2, 0xFF, 0xFD, 0x01, 0x00, 0x00, 0x00, 0x80, 0xFF, 0xFF, 
  0xFF, 0x2F, 0x00, 0x00, 0x00, 0xC0, 0xFF, 0xFF, 0xFF, 0xFF, 0x00, 0x00, 
  0x00, 0xE0, 0xFF, 0xFF, 0xFF, 0xFF, 0x07, 0x00, 0x00, 0xF0, 0xFF, 0xFF, 
  0xFF, 0xFF, 0x0F, 0x00, 0x00, 0xF8, 0xFF, 0x9F, 0xFF, 0xFF, 0x1F, 0x00, 
  0x00, 0xFC, 0xFF, 0xBF, 0xF0, 0xFF, 0x3F, 0x00, 0x00, 0xFC, 0xFF, 0x07, 
  0xEA, 0xFF, 0x7F, 0x00, 0x00, 0xFC, 0xFF, 0x97, 0xE1, 0xFF, 0xFF, 0x00, 
  0x00, 0xFC, 0xFF, 0x87, 0xC1, 0xFF, 0xFF, 0x03, 0x00, 0xFE, 0xFF, 0x97, 
  0xFF, 0xFF, 0xFF, 0x07, 0x80, 0xFF, 0xFF, 0x57, 0xF4, 0xFF, 0xFF, 0x0F, 
  0x80, 0xFF, 0xFF, 0x0F, 0xE0, 0xFF, 0xFF, 0x1F, 0xE0, 0xFF, 0xFF, 0x9F, 
  0xE4, 0x1F, 0xFE, 0x3F, 0xE0, 0xFF, 0xFB, 0x8F, 0xD3, 0x1F, 0xFC, 0x3F, 
  0xF0, 0xFF, 0xF1, 0xD7, 0xC9, 0x0F, 0xF8, 0x3F, 0xF0, 0xFF, 0xF1, 0x07, 
  0xF1, 0x07, 0xF8, 0x3F, 0xF8, 0xFF, 0xF9, 0x1F, 0xF0, 0x07, 0xF0, 0x7F, 
  0xF0, 0x7F, 0xF8, 0xDF, 0xFB, 0x01, 0xE0, 0x7F, 0xFC, 0x7F, 0xFE, 0xFF, 
  0xFF, 0x00, 0xC0, 0x7F, 0xFC, 0x0F, 0x00, 0xFF, 0xFF, 0x00, 0xC0, 0x41, 
  0xFC, 0x0F, 0x00, 0xFE, 0x3F, 0x00, 0x40, 0x80, 0xE1, 0x0F, 0x01, 0xF8, 
  0x1F, 0x00, 0x40, 0x80, 0x81, 0x13, 0x00, 0xE0, 0x1F, 0x00, 0x40, 0x20, 
  0x81, 0xA1, 0x00, 0x80, 0x1F, 0x00, 0x00, 0x10, 0x82, 0x40, 0x00, 0x00, 
  0x0E, 0x00, 0x80, 0x03, 0x12, 0x80, 0x00, 0x00, 0x04, 0x00, 0x00, 0x00, 
  0x2C, 0x80, 0x00, 0x10, 0x06, 0x00, 0x00, 0x00, 0x10, 0x00, 0x01, 0x20, 
  0x02, 0x00, 0x00, 0x00, 0x00, 0x00, 0x01, 0x20, 0x03, 0x00, 0x00, 0x00, 
  0x00, 0x00, 0x02, 0x40, 0x01, 0x00, 0x00, 0x00, 0x00, 0x00, 0x04, 0xC0, 
  0x00, 0x00, 0x00, 0x00, 0x00, 0x00, 0x08, 0x80, 0x00, 0x00, 0x00, 0x00, 
  0x00, 0x00, 0x48, 0x00, 0x00, 0x00, 0x00, 0x00, 0x00, 0x00, 0x28, 0x80, 
  0x01, 0x00, 0x00, 0x00, 0x00, 0x00, 0x2C, 0x80, 0x01, 0x00, 0x00, 0x00, 
  0x00, 0x20, 0x84, 0x00, 0x01, 0x80, 0x00, 0x00, 0x00, 0xC0, 0x8D, 0x03, 
  0x03, 0xC8, 0x04, 0x00, 0x00, 0x80, 0x02, 0x84, 0x03, 0x60, 0x07, 0x00, 
  0x00, 0x00, 0x01, 0x18, 0x03, 0x1A, 0x02, 0x00, 0x00, 0x00, 0x05, 0xD0, 
  0x02, 0x41, 0x06, 0x00, 0x00, 0x00, 0x0E, 0x00, 0x45, 0xA2, 0x06, 0x00, 
  0x00, 0x00, 0x18, 0x00, 0x4A, 0xD4, 0x00, 0x00, 0x00, 0x00, 0x08, 0x02, 
  0x1F, 0x0A, 0x00, 0x00, 0x00, 0x00, 0x54, 0x02, 0x80, 0x06, 0x00, 0x00, 
  0x00, 0x00, 0x20, 0x05, 0x80, 0x03, 0x00, 0x00, 0x00, 0x00, 0x40, 0x00, 
  0xD8, 0x00, 0x00, 0x00, 0x00, 0x00, 0x70, 0x00, 0x18, 0x00, 0x00, 0x00, 
  0x00, 0x00, 0x00, 0x00, 0x04, 0x00, 0x00, 0x00, };
